<svg width="1322" height="100" viewBox="0 0 1322 100" fill="none" xmlns="http://www.w3.org/2000/svg">
<path opacity="0.2" d="M1233.13 98.9727C1259.72 95.9726 1296.82 91.5832 1319.55 88.099M1175.38 98.9727C1219.72 92.762 1279.06 86.5204 1319.79 79.9717M1118.07 98.9591C1184.73 90.8356 1257.96 80.9279 1320.4 72.3246M1061.38 98.9591C1148.19 88.1955 1243.27 75.1189 1320.56 63.155M1009.4 98.9456C1096.15 86.0787 1214.65 70.626 1320.78 54.9861M955.393 98.9727C1041.49 85.9856 1215.66 62.316 1321 46.5295M897.75 98.9453C983.752 86.0341 1215.4 54.1616 1320.62 38.4672M839.03 98.9318C923.917 86.2005 1216.17 46.1083 1320.03 30.6329M779.784 98.9453C863.623 86.3775 1216.27 37.3855 1318.85 22.1088M720.114 98.9453C803.673 86.3496 1214.85 28.8443 1317.09 13.5335M660.648 98.9591C744.152 86.3396 1213.11 20.5439 1315.27 5.204M599.682 98.918C673.446 87.8183 1197.24 14.4926 1287.49 1M358.309 98.9453C422.619 89.2535 963.606 13.0404 1042.29 1.25954M540.546 98.9318C597.066 90.4347 1155 11.544 1224.15 1.21515M117.466 98.9727C173.985 90.4756 732.267 11.643 801.417 1.31419M298.096 98.9318C346.491 91.5486 924.468 10.2414 983.68 1.26638M478.091 98.918C518.147 92.8373 1118.51 8.62697 1167.52 1.23564M54.9017 99C94.958 92.9193 696.5 8.69185 745.51 1.30053M238.2 98.9453C268.117 94.2956 887.723 6.956 924.325 1.30394M417.132 98.9318C440.462 95.4197 1079.54 5.52526 1108.09 1.25613M1.14296 98.0469C24.4731 94.5349 657.559 5.60039 686.101 1.33126M177.107 98.9709C191.035 96.905 849.08 3.7944 866.119 1.28345M1 88.6864C14.9278 86.6204 605.269 3.84221 622.308 1.33126M4.42338 78.7552C18.3512 76.6893 537.331 3.82856 554.37 1.31761M6.66966 68.8925C20.5974 66.8266 471.211 3.84563 488.25 1.33468M7.73676 59.699C21.6645 57.6331 403.54 3.86953 420.58 1.35858M7.95216 50.642C21.8799 48.5761 338.784 3.85246 355.823 1.34151M8.06752 41.3392C21.9953 39.2733 273.815 3.86953 290.854 1.35858M7.94925 33.1156C21.877 31.0497 216.49 3.84221 233.529 1.33126M8.48346 24.5369C22.4112 22.471 156.466 3.82514 173.505 1.31419M9.02188 14.6742C22.9497 12.6083 90.0535 3.81226 107.093 1.30132" stroke="#F5F8FC" stroke-miterlimit="1.5" stroke-linecap="round" stroke-linejoin="round"/>
</svg>
