<svg width="17" height="17" viewBox="0 0 17 17" fill="none" xmlns="http://www.w3.org/2000/svg">
<path d="M15.5619 12.9837C15.5619 13.2387 15.5053 13.5008 15.3848 13.7558C15.2644 14.0108 15.1086 14.2516 14.9032 14.4783C14.5561 14.8608 14.1736 15.137 13.7415 15.3141C13.3165 15.4912 12.8561 15.5833 12.3603 15.5833C11.6378 15.5833 10.8657 15.4133 10.0511 15.0662C9.2365 14.7191 8.42192 14.2516 7.61442 13.6637C6.79984 13.0687 6.02775 12.41 5.29109 11.6804C4.5615 10.9437 3.90275 10.1716 3.31484 9.36413C2.734 8.55663 2.2665 7.74913 1.9265 6.94871C1.5865 6.14121 1.4165 5.36913 1.4165 4.63246C1.4165 4.15079 1.5015 3.69038 1.6715 3.26538C1.8415 2.83329 2.11067 2.43663 2.48609 2.08246C2.93942 1.63621 3.43525 1.41663 3.95942 1.41663C4.15775 1.41663 4.35609 1.45913 4.53317 1.54413C4.71734 1.62913 4.88025 1.75663 5.00775 1.94079L6.65109 4.25704C6.77859 4.43413 6.87067 4.59704 6.93442 4.75288C6.99817 4.90163 7.03359 5.05038 7.03359 5.18496C7.03359 5.35496 6.984 5.52496 6.88484 5.68788C6.79275 5.85079 6.65817 6.02079 6.48817 6.19079L5.94984 6.75038C5.87192 6.82829 5.8365 6.92038 5.8365 7.03371C5.8365 7.09038 5.84359 7.13996 5.85775 7.19663C5.879 7.25329 5.90025 7.29579 5.91442 7.33829C6.04192 7.57204 6.2615 7.87663 6.57317 8.24496C6.89192 8.61329 7.23192 8.98871 7.60025 9.36413C7.98275 9.73954 8.35109 10.0866 8.7265 10.4054C9.09484 10.717 9.39942 10.9295 9.64025 11.057C9.67567 11.0712 9.71817 11.0925 9.76775 11.1137C9.82442 11.135 9.88109 11.142 9.94484 11.142C10.0653 11.142 10.1573 11.0995 10.2353 11.0216L10.7736 10.4904C10.9507 10.3133 11.1207 10.1787 11.2836 10.0937C11.4465 9.99454 11.6094 9.94496 11.7865 9.94496C11.9211 9.94496 12.0628 9.97329 12.2186 10.037C12.3744 10.1008 12.5373 10.1929 12.7144 10.3133L15.059 11.9779C15.2432 12.1054 15.3707 12.2541 15.4486 12.4312C15.5194 12.6083 15.5619 12.7854 15.5619 12.9837Z" stroke="#626E94" stroke-width="1.5" stroke-miterlimit="10"/>
<path d="M13.1042 6.37492C13.1042 5.94992 12.7713 5.29825 12.2754 4.767C11.8221 4.27825 11.22 3.89575 10.625 3.89575" stroke="#00ADB5" stroke-width="1.5" stroke-linecap="round" stroke-linejoin="round"/>
<path d="M15.5833 6.37496C15.5833 3.63371 13.3662 1.41663 10.625 1.41663" stroke="#00ADB5" stroke-width="1.5" stroke-linecap="round" stroke-linejoin="round"/>
</svg>
