<svg width="24" height="24" viewBox="0 0 24 24" fill="none" xmlns="http://www.w3.org/2000/svg">
<g clip-path="url(#clip0_154_1311)">
<path d="M12 21C16.9706 21 21 16.9706 21 12C21 7.02944 16.9706 3 12 3C7.02944 3 3 7.02944 3 12C3 16.9706 7.02944 21 12 21Z" stroke="#7E8AAB" stroke-width="1.5" stroke-linecap="round" stroke-linejoin="round"/>
<path d="M14.5006 9C13.9954 8.49083 13.3724 8.15907 12.7063 8.04453C12.0403 7.92999 11.3594 8.03753 10.7455 8.35425C10.1316 8.67097 9.61069 9.18342 9.2453 9.83009C8.8799 10.4768 8.68555 11.2302 8.68555 12C8.68555 12.7698 8.8799 13.5232 9.2453 14.1699C9.61069 14.8166 10.1316 15.329 10.7455 15.6458C11.3594 15.9625 12.0403 16.07 12.7063 15.9555C13.3724 15.8409 13.9954 15.5092 14.5006 15" stroke="#7E8AAB" stroke-width="1.5" stroke-linecap="round" stroke-linejoin="round"/>
</g>
<defs>
<clipPath id="clip0_154_1311">
<rect width="24" height="24" fill="white"/>
</clipPath>
</defs>
</svg>
