<svg width="228" height="272" viewBox="0 0 228 272" fill="none" xmlns="http://www.w3.org/2000/svg">
<rect width="228" height="272" fill="#F5F8FC"/>
<g clip-path="url(#clip0_154_1273)">
<path d="M113.967 190.715L160.937 163.375V108.626L113.9 135.832L113.967 190.715Z" fill="#808285"/>
<path fill-rule="evenodd" clip-rule="evenodd" d="M114.033 78.442L64.5642 107.238V164.762L114.033 193.558L163.436 164.763V107.237L114.033 78.442ZM112.173 74.3282C113.325 73.658 114.743 73.6584 115.894 74.3292L166.041 103.557C167.191 104.228 167.899 105.465 167.899 106.804V165.196C167.899 166.535 167.191 167.772 166.041 168.443L115.894 197.671C114.743 198.342 113.325 198.342 112.173 197.672L61.9608 168.443C60.81 167.773 60.1011 166.535 60.1011 165.195V106.805C60.1011 105.465 60.81 104.227 61.9608 103.557L112.173 74.3282Z" fill="#00AEEF"/>
<path d="M160.937 108.626L113.967 81.2848L66.9297 108.626L113.9 135.832L160.937 108.626Z" fill="#00AEEF"/>
<path d="M66.9297 108.626V163.375L113.967 190.715L113.9 135.832L66.9297 108.626Z" fill="#58595B"/>
<path fill-rule="evenodd" clip-rule="evenodd" d="M113.012 106.839C113.645 106.471 114.425 106.471 115.057 106.84L138.443 120.477C139.075 120.846 139.464 121.526 139.464 122.262V133.615C139.464 134.353 139.073 135.035 138.438 135.403L114.92 149.04C113.94 149.608 112.69 149.268 112.127 148.28C111.563 147.293 111.901 146.032 112.88 145.464L135.373 132.422V123.452L114.031 111.007L92.4936 123.521V148.407L113.965 160.796L136.4 147.814C137.38 147.247 138.63 147.589 139.193 148.577C139.755 149.565 139.416 150.825 138.437 151.392L114.985 164.962C114.355 165.326 113.581 165.327 112.95 164.963L89.4319 151.393C88.7952 151.026 88.4023 150.343 88.4023 149.603V122.33C88.4023 121.592 88.7929 120.911 89.4266 120.543L113.012 106.839Z" fill="white"/>
</g>
<defs>
<clipPath id="clip0_154_1273">
<rect width="106" height="123" fill="white" transform="translate(61 74.5)"/>
</clipPath>
</defs>
</svg>
