<svg width="21" height="23" viewBox="0 0 21 23" fill="none" xmlns="http://www.w3.org/2000/svg">
<path d="M11.4451 21.2715C12.2993 20.8931 12.933 20.5826 13.346 20.34C13.7591 20.1072 14.0454 19.8743 14.205 19.6414C14.3739 19.4183 14.4584 19.1466 14.4584 18.8264H13.346C12.8015 18.8264 12.2993 18.7003 11.8393 18.448C11.3887 18.186 11.032 17.8319 10.7692 17.3855C10.5063 16.9392 10.3749 16.4395 10.3749 15.8865C10.3749 15.3334 10.5063 14.824 10.7692 14.3583C11.0414 13.8829 11.4028 13.5093 11.8534 13.2376C12.3134 12.9563 12.8109 12.8156 13.346 12.8156C13.8717 12.8156 14.3505 12.9563 14.7823 13.2376C15.2235 13.5093 15.5662 13.8829 15.8102 14.3583C16.0637 14.824 16.1904 15.3334 16.1904 15.8865V18.0841C16.1904 18.938 16.0543 19.6269 15.7821 20.1508C15.5098 20.6845 15.0874 21.1405 14.5148 21.5189C13.9421 21.907 13.0973 22.3485 11.9801 22.8433L11.4451 21.2715ZM13.346 17.0508H14.4584V15.8865C14.4584 15.5566 14.3505 15.2801 14.1346 15.0569C13.9187 14.824 13.6558 14.7076 13.346 14.7076C13.0268 14.7076 12.7546 14.8192 12.5293 15.0423C12.3134 15.2655 12.2054 15.5469 12.2054 15.8865C12.2054 16.2164 12.3134 16.4929 12.5293 16.7161C12.7546 16.9392 13.0268 17.0508 13.346 17.0508ZM16.0919 16.9344H16.8382C16.932 16.9344 16.979 16.9829 16.979 17.0799V18.6809C16.979 18.7779 16.932 18.8264 16.8382 18.8264H16.0919V16.9344Z" fill="#050F2C"/>
<path d="M16.8349 18.8264C16.741 18.8264 16.6941 18.7779 16.6941 18.6809V17.0799C16.6941 16.9829 16.741 16.9344 16.8349 16.9344H18.2007C18.426 16.9344 18.6185 16.8519 18.7781 16.6869C18.9377 16.5123 19.0175 16.3037 19.0175 16.0611V13.194H20.7494V16.1776C20.7494 16.6627 20.6368 17.109 20.4115 17.5165C20.1862 17.9143 19.8764 18.2345 19.4821 18.4771C19.0972 18.71 18.6701 18.8264 18.2007 18.8264H16.8349ZM16.7645 10.2395H18.3838V11.9132H16.7645V10.2395ZM19.116 10.2395H20.7354V11.9132H19.116V10.2395Z" fill="#050F2C"/>
<path d="M4.33723 10.2395C3.55625 10.2395 2.83105 10.0735 2.16164 9.74133C1.50153 9.40918 0.976225 8.95841 0.585735 8.38901C0.195245 7.82752 0 7.21463 0 6.55033V4.33206H1.71537V6.4673C1.71537 6.87062 1.83158 7.24231 2.06402 7.58237C2.30575 7.92242 2.62651 8.1913 3.0263 8.38901C3.43538 8.59462 3.87236 8.69743 4.33723 8.69743C4.82069 8.69743 5.26232 8.59462 5.6621 8.38901C6.06189 8.1913 6.378 7.92242 6.61044 7.58237C6.85217 7.24231 6.97304 6.87062 6.97304 6.4673V3.85757H8.6884V6.55033C8.6884 7.21463 8.49316 7.82752 8.10267 8.38901C7.71218 8.95841 7.18223 9.40918 6.51281 9.74133C5.8527 10.0735 5.1275 10.2395 4.33723 10.2395ZM3.51441 2.89671H5.11821V4.26089H3.51441V2.89671Z" fill="#050F2C"/>
<path d="M12.5752 8.09245C12.1103 8.09245 11.6827 7.99755 11.2922 7.80775C10.911 7.61004 10.6088 7.34907 10.3857 7.02483C10.1625 6.69268 10.051 6.3289 10.051 5.93349V0.156494H11.7663V5.83859C11.7663 6.0363 11.8454 6.20633 12.0034 6.34867C12.1615 6.48311 12.3567 6.55033 12.5892 6.55033H13.3004C13.3934 6.55033 13.4399 6.58988 13.4399 6.66896V7.97382C13.4399 8.05291 13.3934 8.09245 13.3004 8.09245H12.5752Z" fill="#050F2C"/>
<path d="M17.8065 8.11617C17.2766 8.11617 16.7931 8.00546 16.3561 7.78403C15.9284 7.55469 15.5937 7.25022 15.352 6.87062C15.1103 6.49102 14.9894 6.07188 14.9894 5.6132V4.67607H14.1387V3.217H17.8065C18.3365 3.217 18.8246 3.32376 19.2709 3.53728C19.7264 3.7429 20.0844 4.03155 20.3447 4.40324C20.6143 4.76702 20.7491 5.17034 20.7491 5.6132C20.7491 6.06398 20.6143 6.48311 20.3447 6.87062C20.0844 7.25022 19.7264 7.55469 19.2709 7.78403C18.8246 8.00546 18.3365 8.11617 17.8065 8.11617ZM13.3019 8.09245C13.209 8.09245 13.1625 8.05291 13.1625 7.97382V6.66896C13.1625 6.58988 13.209 6.55033 13.3019 6.55033H14.1666C14.399 6.55033 14.5943 6.48311 14.7523 6.34867C14.9104 6.21423 14.9894 6.04816 14.9894 5.85045V4.92518H16.3701V5.93349C16.3701 6.55033 16.1748 7.06437 15.7843 7.4756C15.3938 7.88683 14.8546 8.09245 14.1666 8.09245H13.3019ZM17.8065 6.57406C18.1319 6.57406 18.4016 6.48311 18.6154 6.30122C18.8292 6.11143 18.9361 5.88209 18.9361 5.6132C18.9361 5.34432 18.8292 5.12289 18.6154 4.94891C18.4016 4.76702 18.1319 4.67607 17.8065 4.67607H16.6908V5.6132C16.6908 5.88999 16.7978 6.11933 17.0116 6.30122C17.2254 6.48311 17.4904 6.57406 17.8065 6.57406Z" fill="#050F2C"/>
</svg>
