<svg width="12" height="15" viewBox="0 0 12 15" fill="none" xmlns="http://www.w3.org/2000/svg">
<path d="M6.6191 13.1511C7.11315 12.9323 7.47961 12.7527 7.71849 12.6124C7.95737 12.4778 8.12295 12.3431 8.21525 12.2084C8.31297 12.0794 8.36184 11.9222 8.36184 11.7371H7.71849C7.4036 11.7371 7.11315 11.6641 6.84712 11.5182C6.58652 11.3667 6.38022 11.1619 6.2282 10.9038C6.07619 10.6457 6.00018 10.3567 6.00018 10.0368C6.00018 9.71697 6.07619 9.42237 6.2282 9.15303C6.38565 8.87807 6.59467 8.66203 6.85526 8.50491C7.12129 8.34218 7.40903 8.26082 7.71849 8.26082C8.02252 8.26082 8.2994 8.34218 8.54914 8.50491C8.80431 8.66203 9.00247 8.87807 9.14362 9.15303C9.29021 9.42237 9.3635 9.71697 9.3635 10.0368V11.3078C9.3635 11.8016 9.28478 12.2 9.12734 12.503C8.96989 12.8117 8.72558 13.0754 8.39441 13.2942C8.06324 13.5187 7.57462 13.774 6.92856 14.0602L6.6191 13.1511ZM7.71849 10.7102H8.36184V10.0368C8.36184 9.84603 8.2994 9.68611 8.17453 9.55705C8.04966 9.42238 7.89765 9.35504 7.71849 9.35504C7.5339 9.35504 7.37646 9.41957 7.24616 9.54863C7.12129 9.67769 7.05885 9.84042 7.05885 10.0368C7.05885 10.2276 7.12129 10.3875 7.24616 10.5166C7.37646 10.6457 7.5339 10.7102 7.71849 10.7102ZM9.3065 10.6429H9.73811C9.7924 10.6429 9.81954 10.6709 9.81954 10.727V11.6529C9.81954 11.709 9.7924 11.7371 9.73811 11.7371H9.3065V10.6429Z" fill="#FF6607"/>
<path d="M9.7362 11.7371C9.68191 11.7371 9.65476 11.709 9.65476 11.6529V10.727C9.65476 10.6709 9.68191 10.6429 9.7362 10.6429H10.5261C10.6564 10.6429 10.7677 10.5952 10.86 10.4998C10.9523 10.3988 10.9985 10.2781 10.9985 10.1378V8.47966H12.0001V10.2052C12.0001 10.4857 11.935 10.7439 11.8047 10.9795C11.6744 11.2096 11.4952 11.3948 11.2672 11.5351C11.0446 11.6697 10.7976 11.7371 10.5261 11.7371H9.7362ZM9.69548 6.771H10.632V7.73896H9.69548V6.771ZM11.0555 6.771H11.992V7.73896H11.0555V6.771Z" fill="#FF6607"/>
<path d="M2.50836 6.77105C2.05669 6.77105 1.63729 6.675 1.25015 6.48291C0.868381 6.29082 0.564582 6.03012 0.338749 5.70082C0.112916 5.3761 0 5.02164 0 4.63746V3.35456H0.992051V4.58944C0.992051 4.82269 1.05926 5.03765 1.19369 5.23432C1.33349 5.43098 1.51899 5.58648 1.7502 5.70082C1.98679 5.81974 2.23951 5.87919 2.50836 5.87919C2.78796 5.87919 3.04337 5.81974 3.27458 5.70082C3.50579 5.58648 3.6886 5.43098 3.82303 5.23432C3.96283 5.03765 4.03273 4.82269 4.03273 4.58944V3.08015H5.02478V4.63746C5.02478 5.02164 4.91186 5.3761 4.68603 5.70082C4.4602 6.03012 4.15371 6.29082 3.76657 6.48291C3.3848 6.675 2.9654 6.77105 2.50836 6.77105ZM2.0325 2.52445H2.96002V3.3134H2.0325V2.52445Z" fill="#FF6607"/>
<path d="M7.27265 5.52931C7.0038 5.52931 6.75646 5.47443 6.53063 5.36466C6.31017 5.25032 6.13542 5.09939 6.00637 4.91188C5.87732 4.71978 5.8128 4.5094 5.8128 4.28072V0.939697H6.80485V4.22583C6.80485 4.34017 6.85056 4.43851 6.94196 4.52083C7.03337 4.59858 7.14629 4.63746 7.28071 4.63746H7.69205C7.74582 4.63746 7.77271 4.66033 7.77271 4.70606V5.46071C7.77271 5.50644 7.74582 5.52931 7.69205 5.52931H7.27265Z" fill="#FF6607"/>
<path d="M10.2981 5.54303C9.99159 5.54303 9.71199 5.479 9.45927 5.35094C9.21193 5.21831 9.01836 5.04222 8.87856 4.82269C8.73876 4.60316 8.66885 4.36076 8.66885 4.09549V3.55351H8.17686V2.70968H10.2981C10.6046 2.70968 10.8869 2.77143 11.145 2.89491C11.4084 3.01383 11.6154 3.18077 11.766 3.39572C11.9219 3.60611 11.9999 3.83936 11.9999 4.09549C11.9999 4.35618 11.9219 4.59858 11.766 4.82269C11.6154 5.04222 11.4084 5.21831 11.145 5.35094C10.8869 5.479 10.6046 5.54303 10.2981 5.54303ZM7.69293 5.52931C7.63916 5.52931 7.61228 5.50644 7.61228 5.46071V4.70606C7.61228 4.66033 7.63916 4.63746 7.69293 4.63746H8.19299C8.32742 4.63746 8.44033 4.59858 8.53174 4.52083C8.62315 4.44308 8.66885 4.34704 8.66885 4.2327V3.69758H9.46734V4.28072C9.46734 4.63746 9.35442 4.93474 9.12859 5.17257C8.90275 5.4104 8.59089 5.52931 8.19299 5.52931H7.69293ZM10.2981 4.65118C10.4863 4.65118 10.6422 4.59858 10.7659 4.49339C10.8895 4.38362 10.9514 4.25099 10.9514 4.09549C10.9514 3.93998 10.8895 3.81192 10.7659 3.7113C10.6422 3.60611 10.4863 3.55351 10.2981 3.55351H9.65284V4.09549C9.65284 4.25556 9.71468 4.3882 9.83835 4.49339C9.96202 4.59858 10.1153 4.65118 10.2981 4.65118Z" fill="#FF6607"/>
</svg>
